# Blender 4.1.0
# www.blender.org
mtllib snake_muscles.mtl
o Cube.001
v 5.661978 3.106127 -32.576927
v 5.661978 5.106127 -32.576927
v 5.661978 3.106127 -40.556915
v 5.661978 5.106127 -40.556915
v 6.351851 3.106127 -32.576935
v 6.351851 5.106127 -32.576935
v 6.351851 3.106127 -40.556923
v 6.351851 5.106127 -40.556923
v 5.783318 3.106127 -44.407532
v 5.783318 5.106127 -44.407532
v 5.783318 3.106127 -52.387505
v 5.783318 5.106127 -52.387505
v 6.473191 3.106127 -44.407524
v 6.473191 5.106127 -44.407524
v 6.473191 3.106127 -52.387497
v 6.473191 5.106127 -52.387497
v 5.661978 3.106127 -56.966148
v 5.661978 5.106127 -56.966148
v 5.661979 3.106127 -64.946121
v 5.661979 5.106127 -64.946121
v 6.351852 3.106127 -56.966148
v 6.351852 5.106127 -56.966148
v 6.351852 3.106127 -64.946121
v 6.351852 5.106127 -64.946121
v 5.661977 3.106127 -70.252800
v 5.661977 5.106127 -70.252800
v 5.661977 3.106127 -78.232788
v 5.661977 5.106127 -78.232788
v 6.351851 3.106127 -70.252808
v 6.351851 5.106127 -70.252808
v 6.351850 3.106127 -78.232788
v 6.351850 5.106127 -78.232788
v 5.419298 3.106127 -83.296783
v 5.419298 5.106127 -83.296783
v 5.419298 3.106127 -91.276764
v 5.419298 5.106127 -91.276764
v 6.109171 3.106127 -83.296791
v 6.109171 5.106127 -83.296791
v 6.109171 3.106127 -91.276779
v 6.109171 5.106127 -91.276779
v 5.564904 3.106127 -95.090958
v 5.564904 5.106127 -95.090958
v 5.564904 3.106127 -103.070938
v 5.564904 5.106127 -103.070938
v 6.254777 3.106127 -95.090965
v 6.254777 5.106127 -95.090965
v 6.254777 3.106127 -103.070938
v 6.254777 5.106127 -103.070938
v 5.419297 3.106127 -107.394775
v 5.419297 5.106127 -107.394775
v 5.419297 3.106127 -115.374756
v 5.419297 5.106127 -115.374756
v 6.109170 3.106127 -107.394775
v 6.109170 5.106127 -107.394775
v 6.109171 3.106127 -115.374756
v 6.109171 5.106127 -115.374756
v 5.564904 3.106127 -119.989792
v 5.564904 5.106127 -119.989792
v 5.564905 3.106127 -127.969772
v 5.564905 5.106127 -127.969772
v 6.254778 3.106127 -119.989799
v 6.254778 5.106127 -119.989799
v 6.254778 3.106127 -127.969772
v 6.254778 5.106127 -127.969772
v 5.492101 3.106127 -132.876038
v 5.492101 5.106127 -132.876038
v 5.492101 3.106127 -140.856003
v 5.492101 5.106127 -140.856003
v 6.181974 3.106127 -132.876038
v 6.181974 5.106127 -132.876038
v 6.181974 3.106127 -140.856003
v 6.181974 5.106127 -140.856003
v 5.632541 3.106127 -145.094223
v 5.632541 5.106127 -145.094223
v 5.632541 3.106127 -153.074203
v 5.632541 5.106127 -153.074203
v 6.322414 3.106127 -145.094223
v 6.322414 5.106127 -145.094223
v 6.322414 3.106127 -153.074203
v 6.322414 5.106127 -153.074203
v 5.527211 3.106127 -157.768845
v 5.527211 5.106127 -157.768845
v 5.527211 3.106127 -165.748825
v 5.527211 5.106127 -165.748825
v 6.217085 3.106127 -157.768845
v 6.217085 5.106127 -157.768845
v 6.217084 3.106127 -165.748825
v 6.217084 5.106127 -165.748825
v 5.223864 5.106127 -169.902786
v 5.223864 5.106127 -177.882767
v 5.913737 5.106127 -169.902786
v 5.913737 5.106127 -177.882767
v 5.843987 3.106127 -17.530869
v 5.843987 5.106127 -17.530869
v 5.843987 3.106127 -25.510841
v 5.843987 5.106127 -25.510841
v 6.533860 3.106127 -17.530869
v 6.533860 5.106127 -17.530869
v 6.533860 3.106127 -25.510834
v 6.533860 5.106127 -25.510834
v 5.673127 5.106127 -181.565125
v 5.939845 5.106127 -189.540649
v 6.362615 5.106127 -181.542068
v 6.629333 5.106127 -189.517593
v 7.272069 5.106127 -199.156937
v 6.444589 5.106127 -191.219971
v 6.585914 5.106127 -199.228455
v 5.758434 5.106127 -191.291504
v 7.998520 5.106127 -208.912933
v 7.174240 5.106127 -200.975632
v 7.312336 5.106127 -208.984192
v 6.488057 5.106127 -201.046906
v 8.892987 5.106127 -216.106934
v 8.007146 5.106127 -210.084320
v 8.372328 5.106127 -216.183517
v 7.486487 5.106127 -210.160889
v 9.043730 5.106127 -223.585068
v 8.647293 5.106127 -218.519669
v 8.605824 5.106127 -223.619339
v 8.209387 5.106127 -218.553955
v 13.420609 3.106127 -216.068451
v 13.420609 5.106127 -216.068451
v 13.218380 3.106127 -224.045868
v 13.218380 5.106127 -224.045868
v 14.110262 3.106127 -216.085938
v 14.110262 5.106127 -216.085938
v 13.908031 3.106127 -224.063354
v 13.908031 5.106127 -224.063354
v 16.824581 3.106127 -32.506454
v 16.824581 5.106127 -32.506454
v 16.824581 3.106127 -40.486435
v 16.824581 5.106127 -40.486435
v 17.514454 3.106127 -32.506454
v 17.514454 5.106127 -32.506454
v 17.514454 3.106127 -40.486443
v 17.514454 5.106127 -40.486443
v 16.945921 3.106127 -44.337051
v 16.945921 5.106127 -44.337051
v 16.945921 3.106127 -52.317024
v 16.945921 5.106127 -52.317024
v 17.635796 3.106127 -44.337044
v 17.635796 5.106127 -44.337044
v 17.635796 3.106127 -52.317017
v 17.635796 5.106127 -52.317017
v 16.824581 3.106127 -56.895683
v 16.824581 5.106127 -56.895683
v 16.824583 3.106127 -64.875648
v 16.824583 5.106127 -64.875648
v 17.514456 3.106127 -56.895668
v 17.514456 5.106127 -56.895668
v 17.514456 3.106127 -64.875641
v 17.514456 5.106127 -64.875641
v 16.824579 3.106127 -70.182327
v 16.824579 5.106127 -70.182327
v 16.824581 3.106127 -78.162308
v 16.824581 5.106127 -78.162308
v 17.514454 3.106127 -70.182327
v 17.514454 5.106127 -70.182327
v 17.514454 3.106127 -78.162315
v 17.514454 5.106127 -78.162315
v 16.581902 3.106127 -83.226303
v 16.581902 5.106127 -83.226303
v 16.581902 3.106127 -91.206291
v 16.581902 5.106127 -91.206291
v 17.271776 3.106127 -83.226318
v 17.271776 5.106127 -83.226318
v 17.271774 3.106127 -91.206299
v 17.271774 5.106127 -91.206299
v 16.727507 3.106127 -95.020485
v 16.727507 5.106127 -95.020485
v 16.727507 3.106127 -103.000465
v 16.727507 5.106127 -103.000465
v 17.417379 3.106127 -95.020485
v 17.417379 5.106127 -95.020485
v 17.417381 3.106127 -103.000465
v 17.417381 5.106127 -103.000465
v 16.581900 3.106127 -107.324295
v 16.581900 5.106127 -107.324295
v 16.581902 3.106127 -115.304276
v 16.581902 5.106127 -115.304276
v 17.271774 3.106127 -107.324303
v 17.271774 5.106127 -107.324303
v 17.271774 3.106127 -115.304276
v 17.271774 5.106127 -115.304276
v 16.727509 3.106127 -119.919319
v 16.727509 5.106127 -119.919319
v 16.727509 3.106127 -127.899292
v 16.727509 5.106127 -127.899292
v 17.417381 3.106127 -119.919319
v 17.417381 5.106127 -119.919319
v 17.417381 3.106127 -127.899292
v 17.417381 5.106127 -127.899292
v 16.654705 3.106127 -132.805557
v 16.654705 5.106127 -132.805557
v 16.654703 3.106127 -140.785522
v 16.654703 5.106127 -140.785522
v 17.344578 3.106127 -132.805557
v 17.344578 5.106127 -132.805557
v 17.344578 3.106127 -140.785538
v 17.344578 5.106127 -140.785538
v 16.795145 3.106127 -145.023743
v 16.795145 5.106127 -145.023743
v 16.795145 3.106127 -153.003723
v 16.795145 5.106127 -153.003723
v 17.485018 3.106127 -145.023743
v 17.485018 5.106127 -145.023743
v 17.485018 3.106127 -153.003723
v 17.485018 5.106127 -153.003723
v 16.689814 3.106127 -157.698364
v 16.689814 5.106127 -157.698364
v 16.689816 3.106127 -165.678345
v 16.689816 5.106127 -165.678345
v 17.379688 3.106127 -157.698364
v 17.379688 5.106127 -157.698364
v 17.379688 3.106127 -165.678345
v 17.379688 5.106127 -165.678345
v 16.386467 3.106127 -169.832306
v 16.386467 5.106127 -169.832306
v 16.386467 3.106127 -177.812286
v 16.386467 5.106127 -177.812286
v 17.076340 3.106127 -169.832306
v 17.076340 5.106127 -169.832306
v 17.076340 3.106127 -177.812286
v 17.076340 5.106127 -177.812286
v 15.537090 3.106127 -181.056213
v 15.537090 5.106127 -181.056213
v 15.537090 3.106127 -189.036194
v 15.537090 5.106127 -189.036194
v 16.226963 3.106127 -181.056213
v 16.226963 5.106127 -181.056213
v 16.226963 3.106127 -189.036194
v 16.226963 5.106127 -189.036194
v 15.515373 3.106127 -191.002228
v 15.515373 5.106127 -191.002228
v 15.035870 3.106127 -198.967773
v 15.035870 5.106127 -198.967773
v 16.204000 3.106127 -191.043671
v 16.204000 5.106127 -191.043671
v 15.724497 3.106127 -199.009232
v 15.724497 5.106127 -199.009232
v 15.076502 3.106127 -199.925964
v 15.076502 5.106127 -199.925964
v 14.596998 3.106127 -207.891510
v 14.596998 5.106127 -207.891510
v 15.765129 3.106127 -199.967407
v 15.765129 5.106127 -199.967407
v 15.285625 3.106127 -207.932968
v 15.285625 5.106127 -207.932968
v 14.296947 3.490206 -209.989410
v 14.296947 4.722047 -209.989410
v 14.001610 3.490206 -214.895569
v 14.001610 4.722047 -214.895569
v 14.721087 3.490206 -210.014938
v 14.721087 4.722047 -210.014938
v 14.425751 3.490206 -214.921082
v 14.425751 4.722047 -214.921082
v 17.006590 3.106127 -17.460388
v 17.006590 5.106127 -17.460388
v 17.006590 3.106127 -25.440361
v 17.006590 5.106127 -25.440361
v 17.696465 3.106127 -17.460388
v 17.696465 5.106127 -17.460388
v 17.696465 3.106127 -25.440353
v 17.696465 5.106127 -25.440353
vn -1.0000 -0.0000 -0.0000
vn -0.0000 -0.0000 -1.0000
vn 1.0000 -0.0000 -0.0000
vn -0.0000 -0.0000 1.0000
vn -0.0000 -1.0000 -0.0000
vn -0.0000 1.0000 -0.0000
vn -0.9997 -0.0000 0.0253
vn -0.0253 -0.0000 -0.9997
vn 0.9997 -0.0000 -0.0253
vn 0.0253 -0.0000 0.9997
vn -0.9982 -0.0000 0.0601
vn -0.0601 -0.0000 -0.9982
vn 0.9982 -0.0000 -0.0601
vn 0.0601 -0.0000 0.9982
vt 0.375000 0.000000
vt 0.625000 0.000000
vt 0.625000 0.250000
vt 0.375000 0.250000
vt 0.625000 0.500000
vt 0.375000 0.500000
vt 0.625000 0.750000
vt 0.375000 0.750000
vt 0.625000 1.000000
vt 0.375000 1.000000
vt 0.125000 0.500000
vt 0.125000 0.750000
vt 0.875000 0.500000
vt 0.875000 0.750000
s 0
f 1/1/1 2/2/1 4/3/1 3/4/1
f 3/4/2 4/3/2 8/5/2 7/6/2
f 7/6/3 8/5/3 6/7/3 5/8/3
f 5/8/4 6/7/4 2/9/4 1/10/4
f 3/11/5 7/6/5 5/8/5 1/12/5
f 8/5/6 4/13/6 2/14/6 6/7/6
f 9/1/1 10/2/1 12/3/1 11/4/1
f 11/4/2 12/3/2 16/5/2 15/6/2
f 15/6/3 16/5/3 14/7/3 13/8/3
f 13/8/4 14/7/4 10/9/4 9/10/4
f 11/11/5 15/6/5 13/8/5 9/12/5
f 16/5/6 12/13/6 10/14/6 14/7/6
f 17/1/1 18/2/1 20/3/1 19/4/1
f 19/4/2 20/3/2 24/5/2 23/6/2
f 23/6/3 24/5/3 22/7/3 21/8/3
f 21/8/4 22/7/4 18/9/4 17/10/4
f 19/11/5 23/6/5 21/8/5 17/12/5
f 24/5/6 20/13/6 18/14/6 22/7/6
f 25/1/1 26/2/1 28/3/1 27/4/1
f 27/4/2 28/3/2 32/5/2 31/6/2
f 31/6/3 32/5/3 30/7/3 29/8/3
f 29/8/4 30/7/4 26/9/4 25/10/4
f 27/11/5 31/6/5 29/8/5 25/12/5
f 32/5/6 28/13/6 26/14/6 30/7/6
f 33/1/1 34/2/1 36/3/1 35/4/1
f 35/4/2 36/3/2 40/5/2 39/6/2
f 39/6/3 40/5/3 38/7/3 37/8/3
f 37/8/4 38/7/4 34/9/4 33/10/4
f 35/11/5 39/6/5 37/8/5 33/12/5
f 40/5/6 36/13/6 34/14/6 38/7/6
f 41/1/1 42/2/1 44/3/1 43/4/1
f 43/4/2 44/3/2 48/5/2 47/6/2
f 47/6/3 48/5/3 46/7/3 45/8/3
f 45/8/4 46/7/4 42/9/4 41/10/4
f 43/11/5 47/6/5 45/8/5 41/12/5
f 48/5/6 44/13/6 42/14/6 46/7/6
f 49/1/1 50/2/1 52/3/1 51/4/1
f 51/4/2 52/3/2 56/5/2 55/6/2
f 55/6/3 56/5/3 54/7/3 53/8/3
f 53/8/4 54/7/4 50/9/4 49/10/4
f 51/11/5 55/6/5 53/8/5 49/12/5
f 56/5/6 52/13/6 50/14/6 54/7/6
f 57/1/1 58/2/1 60/3/1 59/4/1
f 59/4/2 60/3/2 64/5/2 63/6/2
f 63/6/3 64/5/3 62/7/3 61/8/3
f 61/8/4 62/7/4 58/9/4 57/10/4
f 59/11/5 63/6/5 61/8/5 57/12/5
f 64/5/6 60/13/6 58/14/6 62/7/6
f 65/1/1 66/2/1 68/3/1 67/4/1
f 67/4/2 68/3/2 72/5/2 71/6/2
f 71/6/3 72/5/3 70/7/3 69/8/3
f 69/8/4 70/7/4 66/9/4 65/10/4
f 67/11/5 71/6/5 69/8/5 65/12/5
f 72/5/6 68/13/6 66/14/6 70/7/6
f 73/1/1 74/2/1 76/3/1 75/4/1
f 75/4/2 76/3/2 80/5/2 79/6/2
f 79/6/3 80/5/3 78/7/3 77/8/3
f 77/8/4 78/7/4 74/9/4 73/10/4
f 75/11/5 79/6/5 77/8/5 73/12/5
f 80/5/6 76/13/6 74/14/6 78/7/6
f 81/1/1 82/2/1 84/3/1 83/4/1
f 83/4/2 84/3/2 88/5/2 87/6/2
f 87/6/3 88/5/3 86/7/3 85/8/3
f 85/8/4 86/7/4 82/9/4 81/10/4
f 83/11/5 87/6/5 85/8/5 81/12/5
f 88/5/6 84/13/6 82/14/6 86/7/6
f 92/5/6 90/13/6 89/14/6 91/7/6
f 93/1/1 94/2/1 96/3/1 95/4/1
f 95/4/2 96/3/2 100/5/2 99/6/2
f 99/6/3 100/5/3 98/7/3 97/8/3
f 97/8/4 98/7/4 94/9/4 93/10/4
f 95/11/5 99/6/5 97/8/5 93/12/5
f 100/5/6 96/13/6 94/14/6 98/7/6
f 104/5/6 102/13/6 101/14/6 103/7/6
f 108/5/6 106/13/6 105/14/6 107/7/6
f 112/5/6 110/13/6 109/14/6 111/7/6
f 116/5/6 114/13/6 113/14/6 115/7/6
f 120/5/6 118/13/6 117/14/6 119/7/6
f 121/1/7 122/2/7 124/3/7 123/4/7
f 123/4/8 124/3/8 128/5/8 127/6/8
f 127/6/9 128/5/9 126/7/9 125/8/9
f 125/8/10 126/7/10 122/9/10 121/10/10
f 123/11/5 127/6/5 125/8/5 121/12/5
f 128/5/6 124/13/6 122/14/6 126/7/6
f 129/1/1 130/2/1 132/3/1 131/4/1
f 131/4/2 132/3/2 136/5/2 135/6/2
f 135/6/3 136/5/3 134/7/3 133/8/3
f 133/8/4 134/7/4 130/9/4 129/10/4
f 131/11/5 135/6/5 133/8/5 129/12/5
f 136/5/6 132/13/6 130/14/6 134/7/6
f 137/1/1 138/2/1 140/3/1 139/4/1
f 139/4/2 140/3/2 144/5/2 143/6/2
f 143/6/3 144/5/3 142/7/3 141/8/3
f 141/8/4 142/7/4 138/9/4 137/10/4
f 139/11/5 143/6/5 141/8/5 137/12/5
f 144/5/6 140/13/6 138/14/6 142/7/6
f 145/1/1 146/2/1 148/3/1 147/4/1
f 147/4/2 148/3/2 152/5/2 151/6/2
f 151/6/3 152/5/3 150/7/3 149/8/3
f 149/8/4 150/7/4 146/9/4 145/10/4
f 147/11/5 151/6/5 149/8/5 145/12/5
f 152/5/6 148/13/6 146/14/6 150/7/6
f 153/1/1 154/2/1 156/3/1 155/4/1
f 155/4/2 156/3/2 160/5/2 159/6/2
f 159/6/3 160/5/3 158/7/3 157/8/3
f 157/8/4 158/7/4 154/9/4 153/10/4
f 155/11/5 159/6/5 157/8/5 153/12/5
f 160/5/6 156/13/6 154/14/6 158/7/6
f 161/1/1 162/2/1 164/3/1 163/4/1
f 163/4/2 164/3/2 168/5/2 167/6/2
f 167/6/3 168/5/3 166/7/3 165/8/3
f 165/8/4 166/7/4 162/9/4 161/10/4
f 163/11/5 167/6/5 165/8/5 161/12/5
f 168/5/6 164/13/6 162/14/6 166/7/6
f 169/1/1 170/2/1 172/3/1 171/4/1
f 171/4/2 172/3/2 176/5/2 175/6/2
f 175/6/3 176/5/3 174/7/3 173/8/3
f 173/8/4 174/7/4 170/9/4 169/10/4
f 171/11/5 175/6/5 173/8/5 169/12/5
f 176/5/6 172/13/6 170/14/6 174/7/6
f 177/1/1 178/2/1 180/3/1 179/4/1
f 179/4/2 180/3/2 184/5/2 183/6/2
f 183/6/3 184/5/3 182/7/3 181/8/3
f 181/8/4 182/7/4 178/9/4 177/10/4
f 179/11/5 183/6/5 181/8/5 177/12/5
f 184/5/6 180/13/6 178/14/6 182/7/6
f 185/1/1 186/2/1 188/3/1 187/4/1
f 187/4/2 188/3/2 192/5/2 191/6/2
f 191/6/3 192/5/3 190/7/3 189/8/3
f 189/8/4 190/7/4 186/9/4 185/10/4
f 187/11/5 191/6/5 189/8/5 185/12/5
f 192/5/6 188/13/6 186/14/6 190/7/6
f 193/1/1 194/2/1 196/3/1 195/4/1
f 195/4/2 196/3/2 200/5/2 199/6/2
f 199/6/3 200/5/3 198/7/3 197/8/3
f 197/8/4 198/7/4 194/9/4 193/10/4
f 195/11/5 199/6/5 197/8/5 193/12/5
f 200/5/6 196/13/6 194/14/6 198/7/6
f 201/1/1 202/2/1 204/3/1 203/4/1
f 203/4/2 204/3/2 208/5/2 207/6/2
f 207/6/3 208/5/3 206/7/3 205/8/3
f 205/8/4 206/7/4 202/9/4 201/10/4
f 203/11/5 207/6/5 205/8/5 201/12/5
f 208/5/6 204/13/6 202/14/6 206/7/6
f 209/1/1 210/2/1 212/3/1 211/4/1
f 211/4/2 212/3/2 216/5/2 215/6/2
f 215/6/3 216/5/3 214/7/3 213/8/3
f 213/8/4 214/7/4 210/9/4 209/10/4
f 211/11/5 215/6/5 213/8/5 209/12/5
f 216/5/6 212/13/6 210/14/6 214/7/6
f 217/1/1 218/2/1 220/3/1 219/4/1
f 219/4/2 220/3/2 224/5/2 223/6/2
f 223/6/3 224/5/3 222/7/3 221/8/3
f 221/8/4 222/7/4 218/9/4 217/10/4
f 219/11/5 223/6/5 221/8/5 217/12/5
f 224/5/6 220/13/6 218/14/6 222/7/6
f 225/1/1 226/2/1 228/3/1 227/4/1
f 227/4/2 228/3/2 232/5/2 231/6/2
f 231/6/3 232/5/3 230/7/3 229/8/3
f 229/8/4 230/7/4 226/9/4 225/10/4
f 227/11/5 231/6/5 229/8/5 225/12/5
f 232/5/6 228/13/6 226/14/6 230/7/6
f 233/1/11 234/2/11 236/3/11 235/4/11
f 235/4/12 236/3/12 240/5/12 239/6/12
f 239/6/13 240/5/13 238/7/13 237/8/13
f 237/8/14 238/7/14 234/9/14 233/10/14
f 235/11/5 239/6/5 237/8/5 233/12/5
f 240/5/6 236/13/6 234/14/6 238/7/6
f 241/1/11 242/2/11 244/3/11 243/4/11
f 243/4/12 244/3/12 248/5/12 247/6/12
f 247/6/13 248/5/13 246/7/13 245/8/13
f 245/8/14 246/7/14 242/9/14 241/10/14
f 243/11/5 247/6/5 245/8/5 241/12/5
f 248/5/6 244/13/6 242/14/6 246/7/6
f 249/1/11 250/2/11 252/3/11 251/4/11
f 251/4/12 252/3/12 256/5/12 255/6/12
f 255/6/13 256/5/13 254/7/13 253/8/13
f 253/8/14 254/7/14 250/9/14 249/10/14
f 251/11/5 255/6/5 253/8/5 249/12/5
f 256/5/6 252/13/6 250/14/6 254/7/6
f 257/1/1 258/2/1 260/3/1 259/4/1
f 259/4/2 260/3/2 264/5/2 263/6/2
f 263/6/3 264/5/3 262/7/3 261/8/3
f 261/8/4 262/7/4 258/9/4 257/10/4
f 259/11/5 263/6/5 261/8/5 257/12/5
f 264/5/6 260/13/6 258/14/6 262/7/6
